<?xml version="1.0" encoding="UTF-8" standalone="no"?>
<!DOCTYPE svg PUBLIC "-//W3C//DTD SVG 1.1//EN"
 "http://www.w3.org/Graphics/SVG/1.1/DTD/svg11.dtd">
<!-- Generated by graphviz version 2.43.0 (0)
 -->
<!-- Title: %3 Pages: 1 -->
<svg width="2498pt" height="585pt"
 viewBox="0.00 0.00 2498.10 585.35" xmlns="http://www.w3.org/2000/svg" xmlns:xlink="http://www.w3.org/1999/xlink">
<g id="graph0" class="graph" transform="scale(1 1) rotate(0) translate(4 581.35)">
<title>%3</title>
<polygon fill="white" stroke="transparent" points="-4,4 -4,-581.35 2494.1,-581.35 2494.1,4 -4,4"/>
<!-- Library Entrance -->
<g id="node1" class="node">
<title>Library Entrance</title>
<ellipse fill="#b2dfee" stroke="#b2dfee" cx="1285.21" cy="-532.1" rx="468.21" ry="45.01"/>
<text text-anchor="start" x="1233.71" y="-549.9" font-family="Times,serif" font-weight="bold" font-size="14.00">Library Entrance</text>
<text text-anchor="start" x="962.21" y="-535.9" font-family="Times,serif" font-size="14.00">You stand at the entrance of an ancient, mystical library. Bookshelves tower above you, filled with arcane knowledge.</text>
<text text-anchor="start" x="1283.21" y="-521.9" font-family="Times,serif" font-size="14.00"> </text>
<text text-anchor="start" x="1197.71" y="-507.9" font-family="Times,serif" font-size="14.00">Characters: LibrarianThe seeker</text>
</g>
<!-- Grand Hall -->
<g id="node2" class="node">
<title>Grand Hall</title>
<ellipse fill="#b2dfee" stroke="#b2dfee" cx="1285.21" cy="-400.49" rx="370.55" ry="35.21"/>
<text text-anchor="start" x="1250.71" y="-411.29" font-family="Times,serif" font-weight="bold" font-size="14.00">Grand Hall</text>
<text text-anchor="start" x="1031.21" y="-397.29" font-family="Times,serif" font-size="14.00">A vast hall with a domed ceiling painted with constellations. Magical lights flicker in the air.</text>
<text text-anchor="start" x="1283.21" y="-383.29" font-family="Times,serif" font-size="14.00"> </text>
</g>
<!-- Library Entrance&#45;&gt;Grand Hall -->
<g id="edge1" class="edge">
<title>Library Entrance&#45;&gt;Grand Hall</title>
<path fill="none" stroke="black" d="M1261.33,-486.57C1258.12,-475.96 1256.69,-464.59 1259.21,-453.84 1259.88,-451.02 1260.72,-448.17 1261.68,-445.34"/>
<polygon fill="black" stroke="black" points="1265.01,-446.44 1265.4,-435.85 1258.49,-443.89 1265.01,-446.44"/>
<text text-anchor="middle" x="1275.21" y="-457.64" font-family="Times,serif" font-size="14.00">North</text>
</g>
<!-- Grand Hall&#45;&gt;Library Entrance -->
<g id="edge2" class="edge">
<title>Grand Hall&#45;&gt;Library Entrance</title>
<path fill="none" stroke="black" d="M1289.74,-436.08C1290.35,-442 1290.89,-448.09 1291.21,-453.84 1291.63,-461.14 1291.6,-468.81 1291.29,-476.38"/>
<polygon fill="black" stroke="black" points="1287.79,-476.41 1290.72,-486.59 1294.78,-476.8 1287.79,-476.41"/>
<text text-anchor="middle" x="1308.21" y="-457.64" font-family="Times,serif" font-size="14.00">South</text>
</g>
<!-- Reading Room -->
<g id="node3" class="node">
<title>Reading Room</title>
<ellipse fill="#b2dfee" stroke="#b2dfee" cx="424.21" cy="-278.78" rx="411.57" ry="35.21"/>
<text text-anchor="start" x="380.21" y="-289.58" font-family="Times,serif" font-weight="bold" font-size="14.00">Reading Room</text>
<text text-anchor="start" x="141.21" y="-275.58" font-family="Times,serif" font-size="14.00">A cozy room with comfortable chairs and magical floating lamps. Perfect for reading enchanted books.</text>
<text text-anchor="start" x="422.21" y="-261.58" font-family="Times,serif" font-size="14.00"> </text>
</g>
<!-- Grand Hall&#45;&gt;Reading Room -->
<g id="edge3" class="edge">
<title>Grand Hall&#45;&gt;Reading Room</title>
<path fill="none" stroke="black" d="M1080.35,-371C949.34,-352.79 779.47,-329.17 645.39,-310.53"/>
<polygon fill="black" stroke="black" points="645.78,-307.05 635.39,-309.14 644.82,-313.98 645.78,-307.05"/>
<text text-anchor="middle" x="923.21" y="-335.93" font-family="Times,serif" font-size="14.00">North</text>
</g>
<!-- Map Room -->
<g id="node4" class="node">
<title>Map Room</title>
<ellipse fill="#b2dfee" stroke="#b2dfee" cx="1286.21" cy="-278.78" rx="432.08" ry="35.21"/>
<text text-anchor="start" x="1252.71" y="-289.58" font-family="Times,serif" font-weight="bold" font-size="14.00">Map Room</text>
<text text-anchor="start" x="988.71" y="-275.58" font-family="Times,serif" font-size="14.00">Walls covered in shifting magical maps of both real and imaginary realms. A large globe floats in the center.</text>
<text text-anchor="start" x="1284.21" y="-261.58" font-family="Times,serif" font-size="14.00"> </text>
</g>
<!-- Grand Hall&#45;&gt;Map Room -->
<g id="edge4" class="edge">
<title>Grand Hall&#45;&gt;Map Room</title>
<path fill="none" stroke="black" d="M1266.59,-364.92C1262.98,-354.51 1260.94,-342.97 1263.21,-332.13 1263.78,-329.45 1264.49,-326.73 1265.31,-324.02"/>
<polygon fill="black" stroke="black" points="1268.7,-324.91 1268.68,-314.31 1262.09,-322.61 1268.7,-324.91"/>
<text text-anchor="middle" x="1275.21" y="-335.93" font-family="Times,serif" font-size="14.00">East</text>
</g>
<!-- Alchemy Lab -->
<g id="node5" class="node">
<title>Alchemy Lab</title>
<ellipse fill="#b2dfee" stroke="#b2dfee" cx="2113.21" cy="-278.78" rx="376.78" ry="35.21"/>
<text text-anchor="start" x="2073.71" y="-289.58" font-family="Times,serif" font-weight="bold" font-size="14.00">Alchemy Lab</text>
<text text-anchor="start" x="1854.71" y="-275.58" font-family="Times,serif" font-size="14.00">Bubbling potions and strange apparatus fill this room. The air shimmers with magical residue.</text>
<text text-anchor="start" x="2111.21" y="-261.58" font-family="Times,serif" font-size="14.00"> </text>
</g>
<!-- Grand Hall&#45;&gt;Alchemy Lab -->
<g id="edge5" class="edge">
<title>Grand Hall&#45;&gt;Alchemy Lab</title>
<path fill="none" stroke="black" d="M1484.59,-370.66C1610.98,-352.39 1774.25,-328.78 1902.72,-310.21"/>
<polygon fill="black" stroke="black" points="1903.3,-313.66 1912.69,-308.77 1902.3,-306.73 1903.3,-313.66"/>
<text text-anchor="middle" x="1762.21" y="-335.93" font-family="Times,serif" font-size="14.00">West</text>
</g>
<!-- Reading Room&#45;&gt;Grand Hall -->
<g id="edge6" class="edge">
<title>Reading Room&#45;&gt;Grand Hall</title>
<path fill="none" stroke="black" d="M712.72,-304.02C787.93,-311.67 868.75,-321.07 943.21,-332.13 1004.75,-341.27 1072.01,-353.94 1130.48,-365.82"/>
<polygon fill="black" stroke="black" points="1130.04,-369.3 1140.54,-367.87 1131.44,-362.44 1130.04,-369.3"/>
<text text-anchor="middle" x="1044.21" y="-335.93" font-family="Times,serif" font-size="14.00">South</text>
</g>
<!-- Restricted Section -->
<g id="node6" class="node">
<title>Restricted Section</title>
<ellipse fill="#b2dfee" stroke="#b2dfee" cx="429.21" cy="-157.07" rx="429.43" ry="35.21"/>
<text text-anchor="start" x="376.21" y="-167.87" font-family="Times,serif" font-weight="bold" font-size="14.00">Restricted Section</text>
<text text-anchor="start" x="133.71" y="-153.87" font-family="Times,serif" font-size="14.00">A dark, foreboding area of the library. Dangerous magical tomes are kept here, protected by magical wards.</text>
<text text-anchor="start" x="427.21" y="-139.87" font-family="Times,serif" font-size="14.00"> </text>
</g>
<!-- Reading Room&#45;&gt;Restricted Section -->
<g id="edge7" class="edge">
<title>Reading Room&#45;&gt;Restricted Section</title>
<path fill="none" stroke="black" d="M415.24,-243.18C413.55,-232.67 412.72,-221.07 414.21,-210.42 414.59,-207.75 415.07,-205.02 415.62,-202.28"/>
<polygon fill="black" stroke="black" points="419.06,-202.94 417.9,-192.41 412.24,-201.37 419.06,-202.94"/>
<text text-anchor="middle" x="426.21" y="-214.22" font-family="Times,serif" font-size="14.00">East</text>
</g>
<!-- Map Room&#45;&gt;Grand Hall -->
<g id="edge8" class="edge">
<title>Map Room&#45;&gt;Grand Hall</title>
<path fill="none" stroke="black" d="M1287.18,-314.39C1287.35,-324.9 1287.42,-336.49 1287.21,-347.13 1287.17,-349.64 1287.11,-352.21 1287.03,-354.81"/>
<polygon fill="black" stroke="black" points="1283.54,-354.75 1286.72,-364.85 1290.53,-354.97 1283.54,-354.75"/>
<text text-anchor="middle" x="1302.21" y="-335.93" font-family="Times,serif" font-size="14.00">West</text>
</g>
<!-- Astral Observatory -->
<g id="node7" class="node">
<title>Astral Observatory</title>
<ellipse fill="#b2dfee" stroke="#b2dfee" cx="1284.21" cy="-157.07" rx="390.15" ry="35.21"/>
<text text-anchor="start" x="1227.21" y="-167.87" font-family="Times,serif" font-weight="bold" font-size="14.00">Astral Observatory</text>
<text text-anchor="start" x="1016.21" y="-153.87" font-family="Times,serif" font-size="14.00">A domed room with a giant magical telescope. The ceiling shows a real&#45;time view of the cosmos.</text>
<text text-anchor="start" x="1282.21" y="-139.87" font-family="Times,serif" font-size="14.00"> </text>
</g>
<!-- Map Room&#45;&gt;Astral Observatory -->
<g id="edge9" class="edge">
<title>Map Room&#45;&gt;Astral Observatory</title>
<path fill="none" stroke="black" d="M1267.16,-243.35C1264.7,-237.52 1262.57,-231.41 1261.21,-225.42 1259.51,-217.88 1260.01,-210 1261.74,-202.4"/>
<polygon fill="black" stroke="black" points="1265.15,-203.2 1264.64,-192.62 1258.44,-201.21 1265.15,-203.2"/>
<text text-anchor="middle" x="1269.71" y="-214.22" font-family="Times,serif" font-size="14.00">Up</text>
</g>
<!-- Alchemy Lab&#45;&gt;Grand Hall -->
<g id="edge10" class="edge">
<title>Alchemy Lab&#45;&gt;Grand Hall</title>
<path fill="none" stroke="black" d="M1971.14,-311.58C1912.28,-323.96 1843.18,-337.46 1780.21,-347.13 1709.75,-357.96 1633.3,-367.25 1562.04,-374.86"/>
<polygon fill="black" stroke="black" points="1561.59,-371.39 1552.02,-375.92 1562.33,-378.35 1561.59,-371.39"/>
<text text-anchor="middle" x="1874.21" y="-335.93" font-family="Times,serif" font-size="14.00">East</text>
</g>
<!-- Restricted Section&#45;&gt;Reading Room -->
<g id="edge11" class="edge">
<title>Restricted Section&#45;&gt;Reading Room</title>
<path fill="none" stroke="black" d="M437.35,-192.67C438.88,-203.19 439.61,-214.78 438.21,-225.42 437.86,-228.08 437.42,-230.8 436.9,-233.54"/>
<polygon fill="black" stroke="black" points="433.46,-232.88 434.77,-243.39 440.3,-234.36 433.46,-232.88"/>
<text text-anchor="middle" x="453.21" y="-214.22" font-family="Times,serif" font-size="14.00">West</text>
</g>
<!-- Cursed Vault -->
<g id="node8" class="node">
<title>Cursed Vault</title>
<ellipse fill="#b2dfee" stroke="#b2dfee" cx="429.21" cy="-35.36" rx="299.21" ry="35.21"/>
<text text-anchor="start" x="390.71" y="-46.16" font-family="Times,serif" font-weight="bold" font-size="14.00">Cursed Vault</text>
<text text-anchor="start" x="225.71" y="-32.16" font-family="Times,serif" font-size="14.00">A chamber filled with cursed artifacts. Entering unprepared could be fatal.</text>
<text text-anchor="start" x="427.21" y="-18.16" font-family="Times,serif" font-size="14.00"> </text>
</g>
<!-- Restricted Section&#45;&gt;Cursed Vault -->
<g id="edge12" class="edge">
<title>Restricted Section&#45;&gt;Cursed Vault</title>
<path fill="none" stroke="black" d="M406.51,-121.73C402.08,-111.33 399.54,-99.73 402.21,-88.71 402.9,-85.87 403.78,-83.01 404.78,-80.17"/>
<polygon fill="black" stroke="black" points="408.12,-81.24 408.64,-70.66 401.64,-78.61 408.12,-81.24"/>
<text text-anchor="middle" x="419.21" y="-92.51" font-family="Times,serif" font-size="14.00">Down</text>
</g>
<!-- Astral Observatory&#45;&gt;Map Room -->
<g id="edge13" class="edge">
<title>Astral Observatory&#45;&gt;Map Room</title>
<path fill="none" stroke="black" d="M1284.79,-192.61C1285,-205.14 1285.24,-219.47 1285.46,-232.77"/>
<polygon fill="black" stroke="black" points="1281.97,-233.21 1285.64,-243.15 1288.97,-233.09 1281.97,-233.21"/>
<text text-anchor="middle" x="1303.21" y="-214.22" font-family="Times,serif" font-size="14.00">Down</text>
</g>
<!-- Cursed Vault&#45;&gt;Restricted Section -->
<g id="edge14" class="edge">
<title>Cursed Vault&#45;&gt;Restricted Section</title>
<path fill="none" stroke="black" d="M434.5,-70.93C435.21,-76.85 435.83,-82.95 436.21,-88.71 436.7,-96.05 436.53,-103.82 436,-111.38"/>
<polygon fill="black" stroke="black" points="432.5,-111.22 435.07,-121.5 439.47,-111.86 432.5,-111.22"/>
<text text-anchor="middle" x="445.71" y="-92.51" font-family="Times,serif" font-size="14.00">Up</text>
</g>
</g>
</svg>
